# xmcd
#
# Track frame offsets: 
#        150
#        16256
#        30235
#
# Disc length: 658 seconds
#
# Revision: 0
# Processed by: cddbd v1.5.2PL0 Copyright (c) Steve Scherf et al.
# Submitted via: ExactAudioCopy v0.95b4
#
DISCID=12029003
DTITLE=Mika - Happy Ending CDs
DYEAR=2007
DGENRE=
TTITLE0=Happy Ending (The LA Edit)
TTITLE1=Grace Kelly (Acoustic)
TTITLE2=Happy Ending (Kleerup Remix)
EXTD=
EXTT0=
EXTT1=
EXTT2=
PLAYORDER=
